<mxfile host="app.diagrams.net" modified="2024-01-24T14:28:51.394Z" agent="Mozilla/5.0 (Macintosh; Intel Mac OS X 10_15_7) AppleWebKit/537.36 (KHTML, like Gecko) Chrome/120.0.0.0 Safari/537.36" version="23.0.1" etag="BEM8hLnzFhy2h5J4EWMZ" type="github">
  <diagram name="第 1 页" id="po9CLMGsYmTI5CZaBOa7">
    <mxGraphModel>
      <root>
        <mxCell id="0" />
        <mxCell id="1" parent="0" />
      </root>
    </mxGraphModel>
  </diagram>
</mxfile>
